<?xml version="1.0" encoding="utf-8"?>
<!-- Generator: Adobe Illustrator 16.0.4, SVG Export Plug-In . SVG Version: 6.00 Build 0)  -->
<!DOCTYPE svg PUBLIC "-//W3C//DTD SVG 1.1//EN" "http://www.w3.org/Graphics/SVG/1.1/DTD/svg11.dtd">
<svg version="1.1" xmlns="http://www.w3.org/2000/svg" xmlns:xlink="http://www.w3.org/1999/xlink" x="0px" y="0px" width="180px"
	 height="180px" viewBox="0 0 180 180" enable-background="new 0 0 180 180" xml:space="preserve">
<g id="Layer_9" display="none">
</g>
<g id="Layer_1">
</g>
<g id="Layer_2">
</g>
<g id="Layer_3">
</g>
<g id="Layer_4">
</g>
<g id="Layer_5">
</g>
<g id="Layer_6">
	<g>
		<path fill="#CCCCCC" d="M128.669,113.416l0.189-0.188C128.794,113.286,128.728,113.352,128.669,113.416"/>
	</g>
	<ellipse fill="#CCCCCC" cx="39.629" cy="25.993" rx="9" ry="15.099"/>
	<ellipse fill="#CCCCCC" cx="90" cy="25.993" rx="9" ry="15.099"/>
	<path fill="#CCCCCC" d="M151.438,25.993c0,10.548-5.098,19.099-11.385,19.099s-11.385-8.551-11.385-19.099h-27.284
		c0,10.548-5.098,19.099-11.385,19.099s-11.385-8.551-11.385-19.099H51.014c0,10.548-5.098,19.099-11.385,19.099
		s-11.385-8.551-11.385-19.099H13.536v27.666h152.927V25.993H151.438z"/>
	<ellipse fill="#CCCCCC" cx="140.054" cy="25.993" rx="9" ry="15.099"/>
	<path fill="#CCCCCC" d="M13.536,57.852v14.026v76.729c0,7.745,7.433,14.026,16.6,14.026h119.727c9.168,0,16.6-6.281,16.6-14.026
		V71.878V57.852H13.536z M139.466,129.992H40.534c-4.14,0-7.496-3.355-7.496-7.496c0-4.14,3.356-7.496,7.496-7.496h98.932
		c4.14,0,7.496,3.356,7.496,7.496C146.962,126.637,143.606,129.992,139.466,129.992z M139.466,97.992H40.534
		c-4.14,0-7.496-3.355-7.496-7.496c0-4.14,3.356-7.496,7.496-7.496h98.932c4.14,0,7.496,3.356,7.496,7.496
		C146.962,94.637,143.606,97.992,139.466,97.992z"/>
</g>
<g id="Layer_7">
</g>
<g id="Layer_8">
</g>
<g id="Layer_10">
</g>
<g id="Layer_11">
</g>
<g id="Layer_12">
</g>
<g id="Layer_13">
</g>
<g id="Layer_14">
</g>
<g id="Layer_15">
</g>
<g id="Layer_16">
</g>
<g id="Layer_17">
</g>
<g id="Layer_18">
</g>
<g id="Layer_19">
</g>
<g id="Layer_20">
</g>
<g id="Layer_22">
</g>
<g id="Layer_21">
</g>
<g id="Layer_30">
</g>
<g id="Layer_23">
</g>
<g id="Layer_24">
</g>
<g id="Layer_25">
</g>
<g id="Layer_26">
</g>
<g id="Layer_27">
</g>
<g id="Layer_28">
</g>
<g id="Layer_29">
</g>
</svg>
