<?xml version="1.0" encoding="utf-8"?>
<!-- Generator: Adobe Illustrator 16.0.4, SVG Export Plug-In . SVG Version: 6.00 Build 0)  -->
<!DOCTYPE svg PUBLIC "-//W3C//DTD SVG 1.1//EN" "http://www.w3.org/Graphics/SVG/1.1/DTD/svg11.dtd">
<svg version="1.1" id="Layer_1" xmlns="http://www.w3.org/2000/svg" xmlns:xlink="http://www.w3.org/1999/xlink" x="0px" y="0px"
	 width="180px" height="180px" viewBox="0 0 180 180" enable-background="new 0 0 180 180" xml:space="preserve">
<g id="Layer_9" display="none">
</g>
<g id="Layer_1_1_">
</g>
<g id="Layer_2">
</g>
<g id="Layer_3">
</g>
<g id="Layer_4">
</g>
<g id="Layer_5">
</g>
<g id="Layer_6">
</g>
<g id="Layer_7">
</g>
<g id="Layer_8">
</g>
<g id="Layer_10">
</g>
<g id="Layer_11">
</g>
<g id="Layer_12">
	<g>
		<path fill="#4e4350" d="M53.314,154.341c-9.315-9.003-22.825-22.19-32.15-31.202c32.09-32.166,64.216-64.371,96.453-96.681
			c0.973,1.079,4.23,4.475,5.494,5.876c-30.215,30.284-60.64,60.783-91.253,91.469c1.525,1.215,4.897,4.307,6.279,5.408
			c30.157-30.23,60.607-60.755,90.933-91.153c7.101,6.859,13.892,13.423,20.494,19.802
			C117.598,89.904,85.471,122.107,53.314,154.341z"/>
		<path fill="#4e4350" d="M155.146,53.328c-9.869-9.531-23.405-22.743-33.135-32.143c3.657-3.523,7.225-7.411,11.271-10.725
			c4.389-3.592,15.396-0.319,20.284,4.982c3.427,3.714,7.097,7.237,10.916,10.553c5.447,4.729,4.664,11.456,1.533,15.524
			c-2.426,3.15-5.428,5.868-8.158,8.791C156.917,51.317,156.016,52.358,155.146,53.328z"/>
		<path fill="#4e4350" d="M48.5,159.077c-11.978,3.042-29.265,9.164-41.905,12.376c3.012-12.424,6.964-31.609,9.846-43.493
			C25.753,136.958,39.122,150.014,48.5,159.077z"/>
	</g>
</g>
<g id="Layer_13">
</g>
<g id="Layer_14">
</g>
<g id="Layer_15">
</g>
<g id="Layer_16">
</g>
<g id="Layer_17">
</g>
<g id="Layer_18">
</g>
<g id="Layer_19">
</g>
<g id="Layer_20">
</g>
<g id="Layer_22">
</g>
<g id="Layer_21">
</g>
<g id="Layer_30">
</g>
<g id="Layer_23">
</g>
<g id="Layer_24">
</g>
<g id="Layer_25">
</g>
<g id="Layer_26">
</g>
<g id="Layer_27">
</g>
<g id="Layer_28">
</g>
<g id="Layer_29">
</g>
</svg>
