<?xml version="1.0" encoding="utf-8"?>
<!-- Generator: Adobe Illustrator 16.0.4, SVG Export Plug-In . SVG Version: 6.00 Build 0)  -->
<!DOCTYPE svg PUBLIC "-//W3C//DTD SVG 1.1//EN" "http://www.w3.org/Graphics/SVG/1.1/DTD/svg11.dtd">
<svg version="1.1" xmlns="http://www.w3.org/2000/svg" xmlns:xlink="http://www.w3.org/1999/xlink" x="0px" y="0px" width="180px"
	 height="180px" viewBox="0 0 180 180" enable-background="new 0 0 180 180" xml:space="preserve">
<g id="Layer_9" display="none">
</g>
<g id="Layer_1">
</g>
<g id="Layer_2">
</g>
<g id="Layer_3">
</g>
<g id="Layer_4">
</g>
<g id="Layer_5">
</g>
<g id="Layer_6">
</g>
<g id="Layer_7">
</g>
<g id="Layer_8">
</g>
<g id="Layer_10">
</g>
<g id="Layer_11">
</g>
<g id="Layer_12">
	<g id="ROlRry.tif">
		<g>
			<path fill-rule="evenodd" clip-rule="evenodd" fill="#484848" d="M163.456,30.016c-2.194,9.623-4.483,19.227-6.566,28.874
				c-6.957,32.217-13.839,64.45-20.894,97.348c-1.516-0.769-2.782-1.347-3.987-2.032c-11.333-6.452-22.705-12.842-33.947-19.45
				c-2.456-1.443-3.93-1.291-5.89,0.749c-3.75,3.902-7.8,7.517-12.266,11.766c-2.757-9.153-5.462-17.744-7.808-26.434
				c-0.282-1.045,1.148-2.857,2.193-3.908C92.617,98.5,110.997,80.13,129.4,61.781c1.049-1.046,2.399-1.788,3.61-2.673
				c-0.296-0.36-0.593-0.722-0.889-1.083c-1.164,0.741-2.34,1.464-3.488,2.229c-22.735,15.151-45.497,30.263-68.157,45.522
				c-2.512,1.692-4.262,1.798-6.84,0.164c-11.017-6.984-22.187-13.727-33.292-20.57c-1.117-0.689-2.178-1.47-3.799-2.57
				c11.702-4.395,22.817-8.576,33.936-12.745c36.332-13.622,72.666-27.236,108.99-40.875c1.103-0.414,2.115-1.071,3.169-1.615
				C162.912,28.383,163.184,29.199,163.456,30.016z"/>
		</g>
	</g>
</g>
<g id="Layer_13">
</g>
<g id="Layer_14">
</g>
<g id="Layer_15">
</g>
<g id="Layer_16">
</g>
<g id="Layer_17">
</g>
<g id="Layer_18">
</g>
<g id="Layer_19">
</g>
<g id="Layer_20">
</g>
<g id="Layer_22">
</g>
<g id="Layer_21">
</g>
<g id="Layer_30">
</g>
<g id="Layer_23">
</g>
<g id="Layer_24">
</g>
<g id="Layer_25">
</g>
<g id="Layer_26">
</g>
<g id="Layer_27">
</g>
<g id="Layer_28">
</g>
<g id="Layer_29">
</g>
</svg>
