<?xml version="1.0" encoding="utf-8"?>
<!-- Generator: Adobe Illustrator 16.0.4, SVG Export Plug-In . SVG Version: 6.00 Build 0)  -->
<!DOCTYPE svg PUBLIC "-//W3C//DTD SVG 1.1//EN" "http://www.w3.org/Graphics/SVG/1.1/DTD/svg11.dtd">
<svg version="1.1" xmlns="http://www.w3.org/2000/svg" xmlns:xlink="http://www.w3.org/1999/xlink" x="0px" y="0px" width="180px"
	 height="180px" viewBox="0 0 180 180" enable-background="new 0 0 180 180" xml:space="preserve">
<g id="Layer_9" display="none">
</g>
<g id="Layer_1">
</g>
<g id="Layer_2">
</g>
<g id="Layer_3">
</g>
<g id="Layer_4">
</g>
<g id="Layer_5">
</g>
<g id="Layer_6">
</g>
<g id="Layer_7">
</g>
<g id="Layer_8">
</g>
<g id="Layer_10">
</g>
<g id="Layer_11">
</g>
<g id="Layer_12">
</g>
<g id="Layer_13">
</g>
<g id="Layer_14">
</g>
<g id="Layer_15">
</g>
<g id="Layer_16">
</g>
<g id="Layer_17">
</g>
<g id="Layer_18">
</g>
<g id="Layer_19">
	<g id="ge16SW.tif_2_">
		<g>
			<path fill-rule="evenodd" clip-rule="evenodd" fill="#CCCCCC" d="M99.137,167.055c-9.047,0-18.092,0-27.139,0.003
				c-0.051-0.938-0.144-1.874-0.146-2.813c-0.029-8.324-0.043-16.651-0.063-24.977c0.02-13.714,0.023-27.43,0.083-41.145
				c0.006-1.229-0.341-1.608-1.604-1.59c-5.161,0.064-10.324-0.035-15.482,0.063c-1.59,0.027-1.971-0.479-1.954-1.974
				c0.072-7.257,0.077-14.516-0.005-21.772c-0.017-1.546,0.462-1.96,1.993-1.933c4.94,0.09,9.884-0.064,14.819,0.083
				c1.913,0.056,2.276-0.551,2.251-2.304c-0.099-6.748-0.138-13.5,0.007-20.246c0.368-16.736,11.582-28.951,28.412-31.115
				c8.316-1.069,16.617-0.473,24.922,0.106c1.454,0.101,1.976,0.62,1.915,2.138c-0.263,6.664-0.458,13.334-0.525,20.002
				c-0.017,1.705-0.614,2.019-2.187,2.027c-5.521,0.035-11.041-0.57-16.563-0.035c-5.927,0.577-8.479,3.21-8.565,9.21
				c-0.087,6.167,0.025,12.337-0.052,18.506c-0.017,1.358,0.385,1.7,1.733,1.691c8.037-0.061,16.075,0.034,24.111-0.077
				c1.873-0.024,2.153,0.614,2.062,2.234c-0.405,7.165-0.731,14.332-1,21.502c-0.056,1.483-0.533,1.967-2.07,1.951
				c-7.669-0.072-15.337-0.016-23.005-0.051c-1.194-0.006-1.843,0.082-1.834,1.582c0.082,13.715,0.074,27.431,0.092,41.145
				c-0.019,2.098-0.039,4.198-0.056,6.296C99.236,152.727,99.188,159.892,99.137,167.055z"/>
		</g>
	</g>
</g>
<g id="Layer_20">
</g>
<g id="Layer_22">
</g>
<g id="Layer_21">
</g>
<g id="Layer_30">
</g>
<g id="Layer_23">
</g>
<g id="Layer_24">
</g>
<g id="Layer_25">
</g>
<g id="Layer_26">
</g>
<g id="Layer_27">
</g>
<g id="Layer_28">
</g>
<g id="Layer_29">
</g>
</svg>
