<?xml version="1.0" encoding="utf-8"?>
<!-- Generator: Adobe Illustrator 16.0.4, SVG Export Plug-In . SVG Version: 6.00 Build 0)  -->
<!DOCTYPE svg PUBLIC "-//W3C//DTD SVG 1.1//EN" "http://www.w3.org/Graphics/SVG/1.1/DTD/svg11.dtd">
<svg version="1.1" xmlns="http://www.w3.org/2000/svg" xmlns:xlink="http://www.w3.org/1999/xlink" x="0px" y="0px" width="180px"
	 height="180px" viewBox="0 0 180 180" enable-background="new 0 0 180 180" xml:space="preserve">
<g id="Layer_9" display="none">
</g>
<g id="Layer_1">
</g>
<g id="Layer_2">
</g>
<g id="Layer_3">
</g>
<g id="Layer_4">
</g>
<g id="Layer_5">
</g>
<g id="Layer_6">
</g>
<g id="Layer_7">
</g>
<g id="Layer_8">
</g>
<g id="Layer_10">
</g>
<g id="Layer_11">
</g>
<g id="Layer_12">
	<g id="kafnhC.tif">
		<g>
			<path fill="#484848" d="M94.261,175.924c-3.465,0-6.93,0-10.396,0c-1.25-0.15-2.5-0.308-3.752-0.451
				c-17.99-2.065-34.103-8.675-47.534-20.857C8.502,132.776-0.879,105.537,4.828,73.562c3.838-21.507,15.041-38.922,32.454-52.073
				C56.23,7.178,77.707,1.774,101.208,4.96c17.025,2.308,32.026,9.331,44.847,20.776c14.744,13.163,23.965,29.509,27.518,48.983
				c0.608,3.332,0.959,6.711,1.428,10.07c0,3.465,0,6.93,0,10.396c-0.111,0.499-0.287,0.994-0.324,1.499
				c-0.975,13.281-4.789,25.711-11.721,37.057c-14.002,22.919-34.308,36.678-60.838,41.137
				C99.514,175.315,96.88,175.58,94.261,175.924z M35.947,142.723c6.71-3.67,13.201-7.221,19.808-10.835
				c-5.126-12.326-7.743-25.461-8.183-39.011c-11.177,0-22.151,0-33.251,0C15.335,112.449,22.636,129.061,35.947,142.723z
				 M141.966,142.931c13.535-13.914,20.851-30.543,21.817-50.083c-11.192,0-22.17,0-33.255,0
				c-0.418,13.696-3.104,26.82-8.266,39.304c3.503,1.717,6.869,3.222,10.093,4.985C135.581,138.902,138.666,140.927,141.966,142.931
				z M163.659,87.166c0.288-15.232-9.251-38.786-18.902-46.75c-0.445,0.315-0.917,0.633-1.371,0.974
				c-5.511,4.135-11.389,7.652-17.719,10.373c-1.257,0.54-1.423,1.062-0.991,2.306c2.445,7.043,4.138,14.271,4.947,21.688
				c0.412,3.771,0.705,7.555,1.059,11.409C141.651,87.166,152.594,87.166,163.659,87.166z M47.582,87.153
				c0.377-11.894,2.364-23.425,6.192-34.179c-7.048-4.157-13.868-8.18-20.785-12.259c-9.704,8.664-20.272,35.113-18.366,46.438
				C25.562,87.153,36.504,87.153,47.582,87.153z M86.238,92.847c-11.089,0-22.027,0-33.087,0c0.337,13.04,2.922,25.462,7.877,37.365
				c4.238-0.945,8.301-2.023,12.427-2.721c4.197-0.709,8.458-1.043,12.783-1.553C86.238,114.993,86.238,103.983,86.238,92.847z
				 M124.964,92.848c-11.172,0-22.108,0-33.078,0c0,11.129,0,22.138,0,33.312c8.563,0.292,16.888,1.677,25.12,4.249
				C122.034,118.313,124.628,105.894,124.964,92.848z M86.245,87.187c0-9.338,0-18.5,0-27.83
				c-9.261-0.333-18.236-1.977-27.115-4.983c-3.79,10.728-5.747,21.564-5.955,32.813C64.288,87.187,75.184,87.187,86.245,87.187z
				 M124.967,87.172c-0.3-11.322-2.169-22.138-6.001-32.791c-8.884,3.024-17.858,4.631-27.026,4.982c0,9.404,0,18.602,0,27.809
				C102.969,87.172,113.862,87.172,124.967,87.172z M61.357,49.301c8.12,2.724,16.325,4.278,24.837,4.451
				c0-12.862,0-25.569,0-38.354C78.564,19.91,64.844,38.628,61.357,49.301z M116.899,49.255
				c-5.782-13.336-13.748-24.73-25.008-34.158c0,13.146,0,25.827,0,38.657C100.453,53.584,108.655,52.017,116.899,49.255z
				 M102.277,16.563c3.646,4.764,7.658,9.456,11.03,14.568c3.369,5.109,6.097,10.64,9.147,16.06
				c6.542-2.762,12.767-6.386,18.528-10.878C132.472,26.977,110.935,16.118,102.277,16.563z M37.035,36.271
				c6.007,4.579,12.191,8.269,18.629,10.909c3.098-5.496,5.812-10.993,9.165-16.069c3.375-5.109,7.383-9.798,11.178-14.754
				C61.133,19.077,48.215,25.643,37.035,36.271z M63.416,135.554c5.612,11.296,12.925,21.095,22.769,29.268
				c0-11.269,0-22.144,0-33.014C80.161,131.628,68.66,133.51,63.416,135.554z M91.888,164.88
				c9.919-8.292,17.259-18.076,22.844-29.41c-7.554-2.317-15.057-3.57-22.844-3.711C91.888,142.747,91.888,153.577,91.888,164.88z
				 M58.157,137.378c-6.326,2.476-12.133,5.525-17.573,9.397c7.912,7.753,29.479,17.701,35.674,16.454
				C68.821,155.621,62.864,147.049,58.157,137.378z M102.007,163.403c13.401-2.196,25.17-7.736,35.644-16.585
				c-5.714-3.922-11.463-7.077-17.708-9.415C115.23,147.082,109.266,155.646,102.007,163.403z"/>
		</g>
	</g>
</g>
<g id="Layer_13">
</g>
<g id="Layer_14">
</g>
<g id="Layer_15">
</g>
<g id="Layer_16">
</g>
<g id="Layer_17">
</g>
<g id="Layer_18">
</g>
<g id="Layer_19">
</g>
<g id="Layer_20">
</g>
<g id="Layer_22">
</g>
<g id="Layer_21">
</g>
<g id="Layer_30">
</g>
<g id="Layer_23">
</g>
<g id="Layer_24">
</g>
<g id="Layer_25">
</g>
<g id="Layer_26">
</g>
<g id="Layer_27">
</g>
<g id="Layer_28">
</g>
<g id="Layer_29">
</g>
</svg>
