<?xml version="1.0" encoding="utf-8"?>
<!-- Generator: Adobe Illustrator 16.0.4, SVG Export Plug-In . SVG Version: 6.00 Build 0)  -->
<!DOCTYPE svg PUBLIC "-//W3C//DTD SVG 1.1//EN" "http://www.w3.org/Graphics/SVG/1.1/DTD/svg11.dtd">
<svg version="1.1" id="Layer_1" xmlns="http://www.w3.org/2000/svg" xmlns:xlink="http://www.w3.org/1999/xlink" x="0px" y="0px"
	 width="206.959px" height="80px" viewBox="0 0 206.959 80" enable-background="new 0 0 206.959 80" xml:space="preserve">
<rect x="16.468" y="4.333" fill="#BBBBBB" width="5.811" height="65.302"/>
<rect x="30.225" y="4.333" fill="#BBBBBB" width="5.811" height="65.302"/>
<rect x="43.982" y="4.333" fill="#BBBBBB" width="5.811" height="65.302"/>
<rect x="57.74" y="4.333" fill="#BBBBBB" width="5.811" height="65.302"/>
<rect x="71.497" y="4.333" fill="#BBBBBB" width="5.811" height="65.302"/>
<rect x="85.254" y="4.333" fill="#BBBBBB" width="5.812" height="65.302"/>
<rect x="99.012" y="4.333" fill="#BBBBBB" width="5.811" height="65.302"/>
<rect x="112.769" y="4.333" fill="#BBBBBB" width="5.812" height="65.302"/>
<rect x="126.526" y="4.333" fill="#BBBBBB" width="5.811" height="65.302"/>
<rect x="140.283" y="4.333" fill="#BBBBBB" width="5.812" height="65.302"/>
<rect x="154.041" y="4.333" fill="#BBBBBB" width="5.811" height="65.302"/>
<rect x="167.798" y="4.333" fill="#BBBBBB" width="5.812" height="65.302"/>
<rect x="181.556" y="4.333" fill="#BBBBBB" width="5.812" height="65.302"/>
<rect x="195.313" y="4.333" fill="#BBBBBB" width="5.812" height="65.302"/>
<rect x="16.468" y="60.333" fill="#D64C02" width="5.811" height="9.303"/>
<rect x="30.225" y="35.666" fill="#D64C02" width="5.811" height="33.969"/>
<rect x="43.982" y="31.5" fill="#D64C02" width="5.811" height="38.136"/>
<rect x="57.74" y="21.166" fill="#D64C02" width="5.811" height="48.469"/>
<rect x="71.497" y="41.666" fill="#D64C02" width="5.811" height="27.969"/>
<rect x="85.254" y="37.666" fill="#D64C02" width="5.812" height="31.969"/>
<rect x="99.012" y="52.651" fill="#D64C02" width="5.811" height="16.984"/>
<rect x="112.769" y="60.333" fill="#D64C02" width="5.812" height="9.303"/>
<rect x="126.526" y="33.832" fill="#D64C02" width="5.811" height="35.803"/>
<rect x="140.283" y="18.166" fill="#D64C02" width="5.812" height="51.471"/>
<rect x="154.041" y="25.999" fill="#D64C02" width="5.811" height="43.636"/>
<rect x="167.798" y="37.666" fill="#D64C02" width="5.812" height="31.969"/>
<rect x="181.556" y="53.651" fill="#D64C02" width="5.812" height="15.984"/>
<rect x="195.313" y="57.999" fill="#D64C02" width="5.812" height="11.636"/>
<text transform="matrix(1 0 0 1 17.6475 78.0005)" fill="#AAAAAA" font-family="'MyriadPro-Regular'" font-size="7">S</text>
<text transform="matrix(1 0 0 1 6.5859 71.4165)" fill="#AAAAAA" font-family="'MyriadPro-Regular'" font-size="6">0</text>
<text transform="matrix(1 0 0 1 3.5083 58.856)" fill="#AAAAAA" font-family="'MyriadPro-Regular'" font-size="6">100</text>
<text transform="matrix(1 0 0 1 3.5083 46.2949)" fill="#AAAAAA" font-family="'MyriadPro-Regular'" font-size="6">200</text>
<text transform="matrix(1 0 0 1 3.5083 33.7344)" fill="#AAAAAA" font-family="'MyriadPro-Regular'" font-size="6">300</text>
<text transform="matrix(1 0 0 1 3.5083 21.1733)" fill="#AAAAAA" font-family="'MyriadPro-Regular'" font-size="6">400</text>
<text transform="matrix(1 0 0 1 3.5083 8.6128)" fill="#AAAAAA" font-family="'MyriadPro-Regular'" font-size="6">500</text>
<text transform="matrix(1 0 0 1 30.3169 78.0005)" fill="#AAAAAA" font-family="'MyriadPro-Regular'" font-size="7">M</text>
<text transform="matrix(1 0 0 1 45.1489 78.0005)" fill="#AAAAAA" font-family="'MyriadPro-Regular'" font-size="7">T</text>
<text transform="matrix(1 0 0 1 57.6841 78.0005)" fill="#AAAAAA" font-family="'MyriadPro-Regular'" font-size="7">W</text>
<text transform="matrix(1 0 0 1 72.6631 78.0005)" fill="#AAAAAA" font-family="'MyriadPro-Regular'" font-size="7">T</text>
<text transform="matrix(1 0 0 1 86.4551 78.0005)" fill="#AAAAAA" font-family="'MyriadPro-Regular'" font-size="7">F</text>
<text transform="matrix(1 0 0 1 100.1914 78.0005)" fill="#AAAAAA" font-family="'MyriadPro-Regular'" font-size="7">S</text>
<text transform="matrix(1 0 0 1 113.9492 78.0005)" fill="#AAAAAA" font-family="'MyriadPro-Regular'" font-size="7">S</text>
<text transform="matrix(1 0 0 1 126.6172 78.0005)" fill="#AAAAAA" font-family="'MyriadPro-Regular'" font-size="7">M</text>
<text transform="matrix(1 0 0 1 141.4502 78.0005)" fill="#AAAAAA" font-family="'MyriadPro-Regular'" font-size="7">T</text>
<text transform="matrix(1 0 0 1 153.9854 78.0005)" fill="#AAAAAA" font-family="'MyriadPro-Regular'" font-size="7">W</text>
<text transform="matrix(1 0 0 1 168.9648 78.0005)" fill="#AAAAAA" font-family="'MyriadPro-Regular'" font-size="7">T</text>
<text transform="matrix(1 0 0 1 182.7578 78.0005)" fill="#AAAAAA" font-family="'MyriadPro-Regular'" font-size="7">F</text>
<text transform="matrix(1 0 0 1 196.4941 78.0005)" fill="#AAAAAA" font-family="'MyriadPro-Regular'" font-size="7">S</text>
</svg>
