<?xml version="1.0" encoding="utf-8"?>
<!-- Generator: Adobe Illustrator 16.0.4, SVG Export Plug-In . SVG Version: 6.00 Build 0)  -->
<!DOCTYPE svg PUBLIC "-//W3C//DTD SVG 1.1//EN" "http://www.w3.org/Graphics/SVG/1.1/DTD/svg11.dtd">
<svg version="1.1" xmlns="http://www.w3.org/2000/svg" xmlns:xlink="http://www.w3.org/1999/xlink" x="0px" y="0px" width="180px"
	 height="180px" viewBox="0 0 180 180" enable-background="new 0 0 180 180" xml:space="preserve">
<g id="Layer_9" display="none">
</g>
<g id="Layer_1">
</g>
<g id="Layer_2">
</g>
<g id="Layer_3">
</g>
<g id="Layer_4">
</g>
<g id="Layer_5">
</g>
<g id="Layer_6">
</g>
<g id="Layer_7">
	<path fill="#aaa" d="M109.304,56.971c0,3.122-2.531,5.653-5.652,5.653H75.426c-3.122,0-5.653-2.531-5.653-5.653V28.745
		c0-3.122,2.531-5.652,5.653-5.652h28.226c3.122,0,5.652,2.531,5.652,5.652V56.971z"/>
	<path fill="#aaa" d="M155.397,56.971c0,3.122-2.531,5.653-5.653,5.653h-28.226c-3.122,0-5.653-2.531-5.653-5.653V28.745
		c0-3.122,2.531-5.652,5.653-5.652h28.226c3.122,0,5.653,2.531,5.653,5.652V56.971z"/>
	<path fill="#aaa" d="M109.304,104.142c0,3.122-2.531,5.653-5.652,5.653H75.426c-3.122,0-5.653-2.531-5.653-5.653V75.915
		c0-3.122,2.531-5.652,5.653-5.652h28.226c3.122,0,5.652,2.531,5.652,5.652V104.142z"/>
	<path fill="#aaa" d="M155.397,104.142c0,3.122-2.531,5.653-5.653,5.653h-28.226c-3.122,0-5.653-2.531-5.653-5.653V75.915
		c0-3.122,2.531-5.652,5.653-5.652h28.226c3.122,0,5.653,2.531,5.653,5.652V104.142z"/>
	<path fill="#aaa" d="M109.304,151.829c0,3.123-2.531,5.653-5.652,5.653H75.426c-3.122,0-5.653-2.531-5.653-5.653v-28.227
		c0-3.121,2.531-5.652,5.653-5.652h28.226c3.122,0,5.652,2.531,5.652,5.652V151.829z"/>
	<path fill="#aaa" d="M62.134,56.971c0,3.122-2.531,5.653-5.653,5.653H28.255c-3.122,0-5.653-2.531-5.653-5.653V28.745
		c0-3.122,2.531-5.652,5.653-5.652h28.226c3.122,0,5.653,2.531,5.653,5.652V56.971z"/>
	<path fill="#aaa" d="M62.134,104.142c0,3.122-2.531,5.653-5.653,5.653H28.255c-3.122,0-5.653-2.531-5.653-5.653V75.915
		c0-3.122,2.531-5.652,5.653-5.652h28.226c3.122,0,5.653,2.531,5.653,5.652V104.142z"/>
	<path fill="#aaa" d="M62.134,151.829c0,3.123-2.531,5.653-5.653,5.653H28.255c-3.122,0-5.653-2.531-5.653-5.653v-28.227
		c0-3.121,2.531-5.652,5.653-5.652h28.226c3.122,0,5.653,2.531,5.653,5.652V151.829z"/>
	<path fill="#aaa" d="M155.397,151.829c0,3.123-2.531,5.653-5.653,5.653h-28.226c-3.122,0-5.653-2.531-5.653-5.653v-28.227
		c0-3.121,2.531-5.652,5.653-5.652h28.226c3.122,0,5.653,2.531,5.653,5.652V151.829z"/>
</g>
<g id="Layer_8">
</g>
<g id="Layer_10">
</g>
<g id="Layer_11">
</g>
<g id="Layer_12">
</g>
<g id="Layer_13">
</g>
<g id="Layer_14">
</g>
<g id="Layer_15">
</g>
<g id="Layer_16">
</g>
<g id="Layer_17">
</g>
<g id="Layer_18">
</g>
<g id="Layer_19">
</g>
<g id="Layer_20">
</g>
<g id="Layer_22">
</g>
<g id="Layer_21">
</g>
<g id="Layer_30">
</g>
<g id="Layer_23">
</g>
<g id="Layer_24">
</g>
<g id="Layer_25">
</g>
<g id="Layer_26">
</g>
<g id="Layer_27">
</g>
<g id="Layer_28">
</g>
<g id="Layer_29">
</g>
</svg>
