<?xml version="1.0" encoding="utf-8"?>
<!-- Generator: Adobe Illustrator 16.0.4, SVG Export Plug-In . SVG Version: 6.00 Build 0)  -->
<!DOCTYPE svg PUBLIC "-//W3C//DTD SVG 1.1//EN" "http://www.w3.org/Graphics/SVG/1.1/DTD/svg11.dtd">
<svg version="1.1" xmlns="http://www.w3.org/2000/svg" xmlns:xlink="http://www.w3.org/1999/xlink" x="0px" y="0px" width="180px"
	 height="180px" viewBox="0 0 180 180" enable-background="new 0 0 180 180" xml:space="preserve">
<g id="Layer_9" display="none">
</g>
<g id="Layer_1">
</g>
<g id="Layer_2">
</g>
<g id="Layer_3">
</g>
<g id="Layer_4">
</g>
<g id="Layer_5">
</g>
<g id="Layer_6">
</g>
<g id="Layer_7">
	<path fill="#aaa" d="M154.887,57.02c0,2.764-8.436,5.005-18.842,5.005H41.955c-10.406,0-18.842-2.241-18.842-5.005V32.028
		c0-2.764,8.436-5.005,18.842-5.005h94.089c10.406,0,18.842,2.241,18.842,5.005V57.02z"/>
	<path fill="#aaa" d="M154.887,101.783c0,2.764-8.436,5.005-18.842,5.005H41.955c-10.406,0-18.842-2.241-18.842-5.005V76.792
		c0-2.764,8.436-5.005,18.842-5.005h94.089c10.406,0,18.842,2.241,18.842,5.005V101.783z"/>
	<path fill="#aaa" d="M154.887,147.004c0,2.764-8.436,5.005-18.842,5.005H41.955c-10.406,0-18.842-2.241-18.842-5.005v-24.991
		c0-2.764,8.436-5.004,18.842-5.004h94.089c10.406,0,18.842,2.24,18.842,5.004V147.004z"/>
</g>
<g id="Layer_8">
</g>
<g id="Layer_10">
</g>
<g id="Layer_11">
</g>
<g id="Layer_12">
</g>
<g id="Layer_13">
</g>
<g id="Layer_14">
</g>
<g id="Layer_15">
</g>
<g id="Layer_16">
</g>
<g id="Layer_17">
</g>
<g id="Layer_18">
</g>
<g id="Layer_19">
</g>
<g id="Layer_20">
</g>
<g id="Layer_22">
</g>
<g id="Layer_21">
</g>
<g id="Layer_30">
</g>
<g id="Layer_23">
</g>
<g id="Layer_24">
</g>
<g id="Layer_25">
</g>
<g id="Layer_26">
</g>
<g id="Layer_27">
</g>
<g id="Layer_28">
</g>
<g id="Layer_29">
</g>
</svg>
