<?xml version="1.0" encoding="utf-8"?>
<!-- Generator: Adobe Illustrator 16.0.4, SVG Export Plug-In . SVG Version: 6.00 Build 0)  -->
<!DOCTYPE svg PUBLIC "-//W3C//DTD SVG 1.1//EN" "http://www.w3.org/Graphics/SVG/1.1/DTD/svg11.dtd">
<svg version="1.1" xmlns="http://www.w3.org/2000/svg" xmlns:xlink="http://www.w3.org/1999/xlink" x="0px" y="0px" width="180px"
	 height="180px" viewBox="0 0 180 180" enable-background="new 0 0 180 180" xml:space="preserve">
<g id="Layer_9" display="none">
</g>
<g id="Layer_1">
</g>
<g id="Layer_2">
</g>
<g id="Layer_3">
	<g>
		<path fill-rule="evenodd" clip-rule="evenodd" fill="#CCCCCC" d="M149.42,79.86L93.932,34.492
			c-0.809-0.661-1.849-0.941-2.854-0.854c-1.003-0.088-2.045,0.192-2.853,0.854L32.738,79.86c-1.545,1.264-1.687,3.46-0.312,4.881
			l6.67,6.899c1.375,1.42,3.761,1.549,5.309,0.284l46.672-38.163l46.673,38.163c1.547,1.265,3.935,1.136,5.308-0.284l6.672-6.899
			C151.106,83.321,150.965,81.124,149.42,79.86"/>
		<polygon fill-rule="evenodd" clip-rule="evenodd" fill="#CCCCCC" points="68.675,35.127 52.421,35.127 52.421,57.31 
			68.675,44.018 		"/>
		<path fill-rule="evenodd" clip-rule="evenodd" fill="#CCCCCC" d="M48.358,96.073v52.508h30.133v-45.876h25.373v45.876h30.134
			v-52.51L97.786,65.834c-1.857-1.551-4.279-2.187-6.606-1.998c-2.326-0.189-4.731,0.465-6.604,1.998L48.358,96.073z"/>
	</g>
</g>
<g id="Layer_4">
</g>
<g id="Layer_5">
</g>
<g id="Layer_6">
</g>
<g id="Layer_7">
</g>
<g id="Layer_8">
</g>
<g id="Layer_10">
</g>
<g id="Layer_11">
</g>
<g id="Layer_12">
</g>
<g id="Layer_13">
</g>
<g id="Layer_14">
</g>
<g id="Layer_15">
</g>
<g id="Layer_16">
</g>
<g id="Layer_17">
</g>
<g id="Layer_18">
</g>
<g id="Layer_19">
</g>
<g id="Layer_20">
</g>
<g id="Layer_22">
</g>
<g id="Layer_21">
</g>
<g id="Layer_30">
</g>
<g id="Layer_23">
</g>
<g id="Layer_24">
</g>
<g id="Layer_25">
</g>
<g id="Layer_26">
</g>
<g id="Layer_27">
</g>
<g id="Layer_28">
</g>
<g id="Layer_29">
</g>
</svg>
