<?xml version="1.0" encoding="utf-8"?>
<!-- Generator: Adobe Illustrator 16.0.4, SVG Export Plug-In . SVG Version: 6.00 Build 0)  -->
<!DOCTYPE svg PUBLIC "-//W3C//DTD SVG 1.1//EN" "http://www.w3.org/Graphics/SVG/1.1/DTD/svg11.dtd">
<svg version="1.1" xmlns="http://www.w3.org/2000/svg" xmlns:xlink="http://www.w3.org/1999/xlink" x="0px" y="0px" width="180px"
	 height="180px" viewBox="0 0 180 180" enable-background="new 0 0 180 180" xml:space="preserve">
<g id="Layer_9" display="none">
</g>
<g id="Layer_1">
</g>
<g id="Layer_2">
</g>
<g id="Layer_3">
</g>
<g id="Layer_4">
</g>
<g id="Layer_5">
</g>
<g id="Layer_6">
</g>
<g id="Layer_7">
</g>
<g id="Layer_8">
</g>
<g id="Layer_10">
</g>
<g id="Layer_11">
</g>
<g id="Layer_12">
</g>
<g id="Layer_13">
</g>
<g id="Layer_14">
</g>
<g id="Layer_15">
</g>
<g id="Layer_16">
</g>
<g id="Layer_17">
	<g>
		<g display="none">
			<path display="inline" fill="#01647B" d="M37.495,62.841l-0.16-7.817l-2.081,1.337l-0.027-1.302
				c0.527-0.275,1.088-0.651,1.679-1.128c0.593-0.476,1.049-0.926,1.37-1.35l0.425-0.009l0.21,10.24L37.495,62.841z"/>
		</g>
		<g display="none">
			<path display="inline" fill="#01647B" d="M35.089,76.25l-0.005-0.256l2.895-4.562c0.604-0.956,0.901-1.763,0.888-2.419
				c-0.019-0.866-0.524-1.29-1.518-1.271c-0.351,0.007-0.679,0.104-0.983,0.291c-0.304,0.188-0.522,0.422-0.656,0.701l-0.853-0.662
				c0.139-0.421,0.421-0.76,0.848-1.016s0.946-0.391,1.558-0.402c0.914-0.019,1.635,0.176,2.16,0.581
				c0.524,0.406,0.795,0.989,0.811,1.75c0.014,0.704-0.311,1.6-0.975,2.684l-2.072,3.386l3.736-0.074l0.023,1.153L35.089,76.25z"/>
		</g>
		<g display="none">
			<path display="inline" fill="#01647B" d="M35.392,89.462l0.64-1.057c0.459,0.479,1.035,0.712,1.724,0.698
				c1.275-0.026,1.9-0.652,1.875-1.883c-0.012-0.56-0.206-1.011-0.586-1.354c-0.379-0.343-0.875-0.508-1.491-0.496l-0.109,0.002
				l-0.023-1.098l0.063-0.001c1.165-0.023,1.737-0.541,1.717-1.553c-0.021-1.058-0.581-1.575-1.679-1.553
				c-0.597,0.012-1.067,0.217-1.413,0.617l-0.632-0.909c0.416-0.555,1.124-0.843,2.125-0.863c0.882-0.018,1.604,0.2,2.17,0.652
				c0.564,0.452,0.854,1.039,0.87,1.762c0.011,0.553-0.134,1.043-0.436,1.474s-0.659,0.724-1.074,0.876
				c0.582,0.174,1.05,0.48,1.401,0.917c0.35,0.439,0.532,0.975,0.545,1.607c0.02,0.922-0.263,1.639-0.844,2.152
				c-0.582,0.513-1.407,0.78-2.478,0.802c-0.45,0.009-0.893-0.064-1.327-0.222C35.995,89.878,35.648,89.688,35.392,89.462z"/>
		</g>
		<g display="none">
			<path display="inline" fill="#01647B" d="M40.453,101.599l0.058,2.778l-1.344,0.026l-0.058-2.778l-4.718,0.094l-0.017-0.792
				l5.43-6.781l0.495-0.01l0.132,6.391l1.046-0.021l0.021,1.072L40.453,101.599z M39.014,96.939l-2.969,3.674l3.043-0.061
				L39.014,96.939z"/>
		</g>
		<g display="none">
			<path display="inline" fill="#01647B" d="M36.459,113.391l-0.503-0.328l-0.104-5.094l5.321-0.105l0.024,1.221l-3.935,0.078
				l0.054,2.559c0.354-0.271,0.81-0.412,1.364-0.422c0.993-0.021,1.757,0.256,2.291,0.83c0.535,0.573,0.813,1.4,0.836,2.478
				c0.055,2.64-1.113,3.982-3.503,4.03c-0.997,0.02-1.83-0.237-2.498-0.77l0.536-1.212c0.674,0.519,1.317,0.771,1.929,0.76
				c1.373-0.027,2.043-0.884,2.008-2.569c-0.032-1.571-0.726-2.345-2.078-2.316C37.549,112.541,36.968,112.83,36.459,113.391z"/>
		</g>
	</g>
	<path fill="#CCCCCC" d="M84.731,30.04c-0.532-4.637-4.788-7.944-9.501-7.406l-64.496,7.363c-4.723,0.539-8.113,4.72-7.581,9.356
		l9.055,78.863c0.531,4.624,4.781,7.938,9.503,7.398l64.497-7.362c4.712-0.538,8.107-4.726,7.578-9.349L84.731,30.04z
		 M24.231,45.601c1.877-0.177,3.539,1.178,3.713,3.025s-1.207,3.488-3.083,3.665c-1.877,0.176-3.539-1.178-3.712-3.025
		C20.974,47.417,22.354,45.777,24.231,45.601z M30.805,108.374c-1.877,0.177-3.539-1.178-3.712-3.025
		c-0.174-1.849,1.206-3.488,3.083-3.665c1.876-0.177,3.539,1.178,3.712,3.026C34.062,106.557,32.682,108.197,30.805,108.374z
		 M29.418,93.623c-1.877,0.177-3.539-1.178-3.713-3.024c-0.174-1.849,1.206-3.488,3.083-3.665c1.876-0.177,3.539,1.178,3.713,3.025
		S31.294,93.447,29.418,93.623z M28.14,80.036c-1.877,0.177-3.539-1.178-3.712-3.025s1.206-3.488,3.083-3.665
		s3.539,1.178,3.713,3.026C31.397,78.219,30.016,79.859,28.14,80.036z M26.855,66.383c-1.877,0.176-3.539-1.178-3.712-3.025
		c-0.174-1.849,1.206-3.488,3.083-3.665c1.876-0.177,3.539,1.178,3.713,3.026C30.113,64.565,28.732,66.206,26.855,66.383z
		 M31.209,46.609l40.539-4.628l0.481,4.189L31.69,50.798L31.209,46.609z M32.772,60.225l40.539-4.629l0.48,4.188l-40.538,4.627
		L32.772,60.225z M34.335,73.84l40.539-4.628l0.482,4.198l-40.539,4.627L34.335,73.84z M35.952,87.919l40.539-4.628l0.482,4.201
		l-40.539,4.627L35.952,87.919z M38.029,106.006l-0.482-4.2l40.539-4.628l0.481,4.2L38.029,106.006z"/>
	<path fill="#CCCCCC" d="M166.381,52.985l-72.048-7.772c-5.274-0.568-10.019,3.156-10.611,8.34l-10.073,88.153
		c-0.591,5.171,3.196,9.822,8.471,10.393l72.049,7.771c5.264,0.567,10.017-3.162,10.607-8.332l10.072-88.156
		C175.441,58.2,171.645,53.553,166.381,52.985z M101.791,65.955c1.877-0.177,3.539,1.178,3.713,3.025s-1.207,3.488-3.083,3.664
		c-1.877,0.177-3.539-1.178-3.712-3.024C98.534,67.771,99.914,66.132,101.791,65.955z M99.796,81.199
		c1.876-0.177,3.539,1.178,3.713,3.025s-1.207,3.488-3.083,3.664c-1.877,0.177-3.539-1.178-3.712-3.024
		C96.54,83.016,97.919,81.375,99.796,81.199z M94.519,134.424c-1.877,0.177-3.539-1.178-3.713-3.024
		c-0.174-1.849,1.206-3.489,3.083-3.665c1.876-0.177,3.539,1.177,3.713,3.025C97.776,132.607,96.395,134.248,94.519,134.424z
		 M96.506,119.115c-1.877,0.176-3.539-1.178-3.712-3.025s1.206-3.488,3.083-3.665c1.876-0.177,3.539,1.178,3.713,3.026
		C99.764,117.298,98.383,118.938,96.506,119.115z M98.431,103.131c-1.877,0.177-3.539-1.178-3.712-3.024
		c-0.174-1.849,1.206-3.489,3.083-3.665c1.876-0.177,3.539,1.177,3.713,3.025C101.688,101.314,100.308,102.955,98.431,103.131z
		 M150.116,139.609l-45.285-4.885l0.537-4.695l45.284,4.885L150.116,139.609z M151.89,124.087l-45.285-4.886l0.537-4.694
		l45.284,4.886L151.89,124.087z M153.688,108.348l-45.285-4.887l0.536-4.693l45.286,4.886L153.688,108.348z M155.428,93.115
		l-45.284-4.885l0.535-4.682l45.285,4.886L155.428,93.115z M157.167,77.897l-45.284-4.886l0.536-4.682l45.284,4.886L157.167,77.897z
		"/>
</g>
<g id="Layer_18">
</g>
<g id="Layer_19">
</g>
<g id="Layer_20">
</g>
<g id="Layer_22">
</g>
<g id="Layer_21">
</g>
<g id="Layer_30">
</g>
<g id="Layer_23">
</g>
<g id="Layer_24">
</g>
<g id="Layer_25">
</g>
<g id="Layer_26">
</g>
<g id="Layer_27">
</g>
<g id="Layer_28">
</g>
<g id="Layer_29">
</g>
</svg>
