<?xml version="1.0" encoding="utf-8"?>
<!-- Generator: Adobe Illustrator 16.0.4, SVG Export Plug-In . SVG Version: 6.00 Build 0)  -->
<!DOCTYPE svg PUBLIC "-//W3C//DTD SVG 1.1//EN" "http://www.w3.org/Graphics/SVG/1.1/DTD/svg11.dtd">
<svg version="1.1" xmlns="http://www.w3.org/2000/svg" xmlns:xlink="http://www.w3.org/1999/xlink" x="0px" y="0px" width="180px"
	 height="180px" viewBox="0 0 180 180" enable-background="new 0 0 180 180" xml:space="preserve">
<g id="Layer_9" display="none">
</g>
<g id="Layer_1">
</g>
<g id="Layer_2">
</g>
<g id="Layer_3">
</g>
<g id="Layer_4">
</g>
<g id="Layer_5">
</g>
<g id="Layer_6">
</g>
<g id="Layer_7">
</g>
<g id="Layer_8">
</g>
<g id="Layer_10">
</g>
<g id="Layer_11">
</g>
<g id="Layer_12">
</g>
<g id="Layer_13">
</g>
<g id="Layer_14">
</g>
<g id="Layer_15">
</g>
<g id="Layer_16">
</g>
<g id="Layer_17">
</g>
<g id="Layer_18">
</g>
<g id="Layer_19">
</g>
<g id="Layer_20">
</g>
<g id="Layer_22">
</g>
<g id="Layer_21">
</g>
<g id="Layer_30">
</g>
<g id="Layer_23">
</g>
<g id="Layer_24">
</g>
<g id="Layer_25">
</g>
<g id="Layer_26">
</g>
<g id="Layer_27">
</g>
<g id="Layer_28">
	<g id="_x36_ZL4ae.tif">
		<g>
			<path fill="#CCCCCC" d="M161.559,88.29c0,18.17,0,36.339,0,54.508c-0.428,0.299-0.386,0.812-0.554,1.226
				c-1.477,3.657-4.094,5.866-8.056,6.383c-0.417-0.021-0.836-0.06-1.253-0.06c-40.996-0.002-81.992-0.002-122.988,0.005
				c-0.54,0-1.127-0.159-1.602,0.273c-0.187,0-0.373,0-0.56,0c-0.226-0.446-0.706-0.383-1.074-0.498
				c-3.265-1.026-5.437-3.153-6.569-6.374c-0.116-0.327-0.07-0.755-0.463-0.955c0-18.169,0-36.338,0-54.508
				c6.205,7.504,14.196,10.887,23.905,10.764c11.824-0.15,23.649-0.022,35.475-0.058c1.134-0.004,1.563,0.286,1.513,1.477
				c-0.09,2.045-0.057,4.098-0.014,6.145c0.072,3.301,2.483,5.689,5.789,5.723c3.259,0.033,6.518,0.033,9.775,0
				c3.304-0.033,5.717-2.421,5.794-5.721c0.044-1.954,0.113-3.917-0.02-5.862c-0.101-1.462,0.413-1.775,1.797-1.769
				c12.012,0.052,24.022,0.028,36.034,0.03c2.144,0,4.275-0.109,6.387-0.535C151.68,97.115,157.174,93.613,161.559,88.29z"/>
			<path fill-rule="evenodd" clip-rule="evenodd" fill="#CCCCCC" d="M161.559,50.555c0,9.037,0,18.076,0,27.113
				c-0.141,0.34-0.303,0.672-0.419,1.02c-2.932,8.819-11.126,15.244-20.438,15.402c-12.988,0.221-25.984,0.063-38.978,0.089
				c-0.792,0.002-1.059-0.259-1.044-1.043c0.036-2.143,0.037-4.285-0.001-6.427c-0.058-3.334-2.345-5.761-5.677-5.862
				c-3.303-0.101-6.613-0.093-9.918-0.001c-3.427,0.095-5.71,2.497-5.768,5.916c-0.034,2.001-0.062,4.006,0.012,6.006
				c0.04,1.073-0.254,1.429-1.387,1.425c-12.619-0.043-25.24,0.008-37.861-0.044c-9.517-0.039-18.067-6.259-21.146-15.241
				c-0.144-0.42-0.328-0.826-0.494-1.239c0-9.037,0-18.076,0-27.113c0.083-0.106,0.203-0.2,0.244-0.32
				c1.808-5.318,4.883-7.522,10.514-7.524c10.38-0.002,20.761,0,31.141,0c30.396,0,60.791-0.003,91.187,0.005
				c4.629,0.001,8.212,2.599,9.616,6.869C161.248,49.91,161.126,50.361,161.559,50.555z"/>
			<path fill-rule="evenodd" clip-rule="evenodd" fill="#CCCCCC" d="M90.044,23.25c4.935-0.001,9.869-0.009,14.805,0.001
				c6.336,0.012,10.348,4.048,10.362,10.41c0.002,1.071-0.031,2.144,0.01,3.212c0.026,0.727-0.261,0.991-0.976,0.982
				c-2.096-0.025-4.19-0.026-6.285,0.001c-0.723,0.008-0.989-0.271-0.965-0.99c0.039-1.162,0.01-2.327,0.006-3.491
				c-0.004-1.26-0.604-1.848-1.897-1.847c-10.057,0.018-20.112,0.006-30.168,0.015c-1.446,0.002-1.907,0.474-1.938,1.927
				c-0.024,1.116-0.03,2.235,0.001,3.352c0.018,0.668-0.143,1.045-0.917,1.035c-2.142-0.03-4.282-0.015-6.424-0.009
				c-0.546,0.002-0.889-0.158-0.872-0.788c0.051-1.999-0.218-4.02,0.171-5.993c0.912-4.633,4.813-7.764,9.725-7.805
				C79.803,23.218,84.923,23.251,90.044,23.25z"/>
			<path fill-rule="evenodd" clip-rule="evenodd" fill="#CCCCCC" d="M84.13,96.617c0-3.072,0.043-6.147-0.021-9.221
				c-0.026-1.292,0.469-1.723,1.727-1.694c2.792,0.061,5.588,0.053,8.382,0.003c1.181-0.021,1.675,0.379,1.668,1.611
				c-0.038,6.193-0.036,12.388-0.001,18.581c0.006,1.21-0.467,1.669-1.656,1.651c-2.794-0.04-5.588-0.047-8.382,0.004
				c-1.247,0.021-1.761-0.425-1.735-1.715C84.171,102.766,84.13,99.691,84.13,96.617z"/>
		</g>
	</g>
</g>
<g id="Layer_29">
</g>
</svg>
