<?xml version="1.0" encoding="utf-8"?>
<!-- Generator: Adobe Illustrator 16.0.4, SVG Export Plug-In . SVG Version: 6.00 Build 0)  -->
<!DOCTYPE svg PUBLIC "-//W3C//DTD SVG 1.1//EN" "http://www.w3.org/Graphics/SVG/1.1/DTD/svg11.dtd">
<svg version="1.1" xmlns="http://www.w3.org/2000/svg" xmlns:xlink="http://www.w3.org/1999/xlink" x="0px" y="0px" width="180px"
	 height="180px" viewBox="0 0 180 180" enable-background="new 0 0 180 180" xml:space="preserve">
<g id="Layer_9" display="none">
</g>
<g id="Layer_1">
</g>
<g id="Layer_2">
</g>
<g id="Layer_3">
</g>
<g id="Layer_4">
</g>
<g id="Layer_5">
</g>
<g id="Layer_6">
</g>
<g id="Layer_7">
</g>
<g id="Layer_8">
</g>
<g id="Layer_10">
</g>
<g id="Layer_11">
</g>
<g id="Layer_12">
</g>
<g id="Layer_13">
</g>
<g id="Layer_14">
</g>
<g id="Layer_15">
</g>
<g id="Layer_16">
</g>
<g id="Layer_17">
</g>
<g id="Layer_18">
</g>
<g id="Layer_19">
</g>
<g id="Layer_20">
</g>
<g id="Layer_22">
</g>
<g id="Layer_21">
</g>
<g id="Layer_30">
</g>
<g id="Layer_23">
</g>
<g id="Layer_24">
</g>
<g id="Layer_25">
</g>
<g id="Layer_26">
</g>
<g id="Layer_27">
</g>
<g id="Layer_28">
	<g id="YGyoPE.tif">
		<g>
			<path fill-rule="evenodd" clip-rule="evenodd" fill="#CCCCCC" d="M97.747,76.131c1.671-1.79,3.08-3.671,4.754-5.337
				c4.841-4.812,10.738-7.206,17.478-7.636c6.447-0.412,12.678,0.424,18.432,3.568c8.449,4.617,12.782,12.158,14.87,21.233
				c0.932,4.051,1.309,8.173,1.309,12.327c0.001,15.447-0.014,30.895,0.029,46.343c0.003,1.282-0.249,1.755-1.651,1.743
				c-8.127-0.067-16.255-0.072-24.381,0.003c-1.489,0.014-1.756-0.483-1.751-1.843c0.046-14.21,0.019-28.419,0.034-42.629
				c0.003-3.026-0.225-6.017-1.045-8.941c-2.794-9.963-14.306-13.495-22.251-6.789c-3.923,3.312-5.855,7.559-5.84,12.745
				c0.043,15.179-0.012,30.357,0.055,45.535c0.007,1.601-0.449,1.937-1.971,1.922c-8.019-0.077-16.04-0.074-24.058-0.001
				c-1.466,0.014-1.769-0.44-1.762-1.828c0.107-23.682,0.167-47.363,0.218-71.045c0.006-3.014-0.065-6.029-0.164-9.041
				c-0.032-0.97,0.106-1.46,1.266-1.453c8.396,0.042,16.793,0.038,25.189,0.003c1-0.005,1.279,0.312,1.263,1.289
				C97.714,69.576,97.747,72.854,97.747,76.131z"/>
			<path fill-rule="evenodd" clip-rule="evenodd" fill="#CCCCCC" d="M27.017,106.67c0-13.291,0.021-26.584-0.033-39.876
				c-0.006-1.388,0.289-1.816,1.751-1.802c8.125,0.078,16.252,0.07,24.377,0.006c1.381-0.012,1.674,0.425,1.672,1.731
				c-0.037,26.639-0.037,53.276,0,79.914c0.002,1.321-0.319,1.738-1.688,1.728c-8.125-0.063-16.252-0.074-24.377,0.008
				c-1.503,0.016-1.738-0.485-1.732-1.832C27.036,133.256,27.017,119.963,27.017,106.67z"/>
			<path fill-rule="evenodd" clip-rule="evenodd" fill="#CCCCCC" d="M40.815,53.577c-7.486,0.002-13.096-3.929-14.888-10.431
				c-2.365-8.579,3.144-16.882,11.966-18.099c2.809-0.388,5.577-0.316,8.302,0.458c6.472,1.839,10.522,7.462,10.308,14.25
				c-0.212,6.699-4.7,11.978-11.366,13.404C43.707,53.465,42.267,53.56,40.815,53.577z"/>
		</g>
	</g>
</g>
<g id="Layer_29">
</g>
</svg>
