<?xml version="1.0" encoding="utf-8"?>
<!-- Generator: Adobe Illustrator 16.0.4, SVG Export Plug-In . SVG Version: 6.00 Build 0)  -->
<!DOCTYPE svg PUBLIC "-//W3C//DTD SVG 1.1//EN" "http://www.w3.org/Graphics/SVG/1.1/DTD/svg11.dtd">
<svg version="1.1" xmlns="http://www.w3.org/2000/svg" xmlns:xlink="http://www.w3.org/1999/xlink" x="0px" y="0px" width="180px"
	 height="180px" viewBox="0 0 180 180" enable-background="new 0 0 180 180" xml:space="preserve">
<g id="Layer_9" display="none">
</g>
<g id="Layer_1">
</g>
<g id="Layer_2">
</g>
<g id="Layer_3">
</g>
<g id="Layer_4">
</g>
<g id="Layer_5">
</g>
<g id="Layer_6">
</g>
<g id="Layer_7">
	<path fill="#CCCCCC" d="M114.536,18.665c-7.719-4.456-16.127-6.565-24.438-6.555c-8.31-0.011-16.728,2.099-24.446,6.555
		c-23.38,13.492-31.383,43.388-17.888,66.763l40.574,70.286c0.969,1.673,2.54,1.673,3.512,0l40.573-70.286
		C145.919,62.053,137.914,32.157,114.536,18.665z M90.098,88.646c-15.235,0-27.592-12.35-27.592-27.585
		c0-15.238,12.356-27.596,27.592-27.596c15.227,0,27.585,12.357,27.585,27.596C117.683,76.297,105.325,88.646,90.098,88.646z"/>
</g>
<g id="Layer_8">
</g>
<g id="Layer_10">
</g>
<g id="Layer_11">
</g>
<g id="Layer_12">
</g>
<g id="Layer_13">
</g>
<g id="Layer_14">
</g>
<g id="Layer_15">
</g>
<g id="Layer_16">
</g>
<g id="Layer_17">
</g>
<g id="Layer_18">
</g>
<g id="Layer_19">
</g>
<g id="Layer_20">
</g>
<g id="Layer_22">
</g>
<g id="Layer_21">
</g>
<g id="Layer_30">
</g>
<g id="Layer_23">
</g>
<g id="Layer_24">
</g>
<g id="Layer_25">
</g>
<g id="Layer_26">
</g>
<g id="Layer_27">
</g>
<g id="Layer_28">
</g>
<g id="Layer_29">
</g>
</svg>
