<?xml version="1.0" encoding="utf-8"?>
<!-- Generator: Adobe Illustrator 16.0.4, SVG Export Plug-In . SVG Version: 6.00 Build 0)  -->
<!DOCTYPE svg PUBLIC "-//W3C//DTD SVG 1.1//EN" "http://www.w3.org/Graphics/SVG/1.1/DTD/svg11.dtd">
<svg version="1.1" xmlns="http://www.w3.org/2000/svg" xmlns:xlink="http://www.w3.org/1999/xlink" x="0px" y="0px" width="180px"
	 height="180px" viewBox="0 0 180 180" enable-background="new 0 0 180 180" xml:space="preserve">
<g id="Layer_9" display="none">
</g>
<g id="Layer_1">
</g>
<g id="Layer_2">
</g>
<g id="Layer_3">
</g>
<g id="Layer_4">
</g>
<g id="Layer_5">
</g>
<g id="Layer_6">
</g>
<g id="Layer_7">
</g>
<g id="Layer_8">
</g>
<g id="Layer_10">
</g>
<g id="Layer_11">
</g>
<g id="Layer_12">
</g>
<g id="Layer_13">
</g>
<g id="Layer_14">
</g>
<g id="Layer_15">
</g>
<g id="Layer_16">
</g>
<g id="Layer_17">
</g>
<g id="Layer_18">
</g>
<g id="Layer_19">
</g>
<g id="Layer_20">
</g>
<g id="Layer_22">
</g>
<g id="Layer_21">
</g>
<g id="Layer_30">
</g>
<g id="Layer_23">
</g>
<g id="Layer_24">
</g>
<g id="Layer_25">
</g>
<g id="Layer_26">
</g>
<g id="Layer_27">
</g>
<g id="Layer_28">
	<path fill="#CCCCCC" d="M109.612,23.617H42.723v131h98.519v-99.37L109.612,23.617z M53.385,52.997c0-2.762,2.612-5,5.834-5h24.946
		c3.222,0,5.834,2.238,5.834,5s-2.612,5-5.834,5H59.219C55.997,57.997,53.385,55.759,53.385,52.997z M127.613,126.833h-69
		c-1.381,0-2.5-1.119-2.5-2.5s1.119-2.5,2.5-2.5h69c1.381,0,2.5,1.119,2.5,2.5S128.994,126.833,127.613,126.833z M127.613,108.833
		h-69c-1.381,0-2.5-1.119-2.5-2.5s1.119-2.5,2.5-2.5h69c1.381,0,2.5,1.119,2.5,2.5S128.994,108.833,127.613,108.833z M127.613,92.5
		h-69c-1.381,0-2.5-1.119-2.5-2.5s1.119-2.5,2.5-2.5h69c1.381,0,2.5,1.119,2.5,2.5S128.994,92.5,127.613,92.5z M127.613,77.951h-69
		c-1.381,0-2.5-1.119-2.5-2.5s1.119-2.5,2.5-2.5h69c1.381,0,2.5,1.119,2.5,2.5S128.994,77.951,127.613,77.951z"/>
	<polygon fill="#CCCCCC" points="109.612,23.617 141.242,55.247 109.612,55.247 	"/>
</g>
<g id="Layer_29">
</g>
</svg>
