<?xml version="1.0" encoding="utf-8"?>
<!-- Generator: Adobe Illustrator 16.0.4, SVG Export Plug-In . SVG Version: 6.00 Build 0)  -->
<!DOCTYPE svg PUBLIC "-//W3C//DTD SVG 1.1//EN" "http://www.w3.org/Graphics/SVG/1.1/DTD/svg11.dtd">
<svg version="1.1" xmlns="http://www.w3.org/2000/svg" xmlns:xlink="http://www.w3.org/1999/xlink" x="0px" y="0px" width="180px"
	 height="180px" viewBox="0 0 180 180" enable-background="new 0 0 180 180" xml:space="preserve">
<g id="Layer_9" display="none">
</g>
<g id="Layer_1">
</g>
<g id="Layer_2">
</g>
<g id="Layer_3">
</g>
<g id="Layer_4">
</g>
<g id="Layer_5">
</g>
<g id="Layer_6">
</g>
<g id="Layer_7">
</g>
<g id="Layer_8">
</g>
<g id="Layer_10">
</g>
<g id="Layer_11">
	<path fill="#CCCCCC" d="M129.083,31.176H48.833c-5.876,0-10.628,4.658-10.628,10.428v98.133c0,5.756,4.752,10.422,10.628,10.422
		h80.251c5.864,0,10.623-4.666,10.623-10.422V41.604C139.707,35.834,134.948,31.176,129.083,31.176z M60.477,130.178
		c-2.574,0-4.643-2.047-4.643-4.574c0-2.504,2.068-4.551,4.643-4.551c2.557,0,4.647,2.047,4.647,4.551
		C65.125,128.131,63.034,130.178,60.477,130.178z M60.485,112.845c-2.574,0-4.643-2.047-4.643-4.574
		c0-2.504,2.068-4.551,4.643-4.551c2.557,0,4.647,2.047,4.647,4.551C65.132,110.798,63.042,112.845,60.485,112.845z M60.485,95.512
		c-2.574,0-4.643-2.047-4.643-4.574c0-2.504,2.068-4.551,4.643-4.551c2.557,0,4.647,2.047,4.647,4.551
		C65.132,93.465,63.042,95.512,60.485,95.512z M60.485,78.562c-2.574,0-4.643-2.039-4.643-4.564c0-2.52,2.068-4.561,4.643-4.561
		c2.557,0,4.647,2.041,4.647,4.561C65.132,76.523,63.042,78.562,60.485,78.562z M60.485,61.615c-2.574,0-4.643-2.039-4.643-4.566
		c0-2.52,2.068-4.559,4.643-4.559c2.557,0,4.647,2.039,4.647,4.559C65.132,59.576,63.042,61.615,60.485,61.615z M122.069,128.225
		h-50.44V123h50.44V128.225z M122.077,110.892h-50.44v-5.225h50.44V110.892z M122.077,93.559h-50.44v-5.225h50.44V93.559z
		 M122.077,76.602h-50.44v-5.209h50.44V76.602z M122.077,59.662h-50.44v-5.211h50.44V59.662z"/>
</g>
<g id="Layer_12">
</g>
<g id="Layer_13">
</g>
<g id="Layer_14">
</g>
<g id="Layer_15">
</g>
<g id="Layer_16">
</g>
<g id="Layer_17">
</g>
<g id="Layer_18">
</g>
<g id="Layer_19">
</g>
<g id="Layer_20">
</g>
<g id="Layer_22">
</g>
<g id="Layer_21">
</g>
<g id="Layer_30">
</g>
<g id="Layer_23">
</g>
<g id="Layer_24">
</g>
<g id="Layer_25">
</g>
<g id="Layer_26">
</g>
<g id="Layer_27">
</g>
<g id="Layer_28">
</g>
<g id="Layer_29">
</g>
</svg>
