<?xml version="1.0" encoding="utf-8"?>
<!-- Generator: Adobe Illustrator 16.0.4, SVG Export Plug-In . SVG Version: 6.00 Build 0)  -->
<!DOCTYPE svg PUBLIC "-//W3C//DTD SVG 1.1//EN" "http://www.w3.org/Graphics/SVG/1.1/DTD/svg11.dtd">
<svg version="1.1" xmlns="http://www.w3.org/2000/svg" xmlns:xlink="http://www.w3.org/1999/xlink" x="0px" y="0px" width="180px"
	 height="180px" viewBox="0 0 180 180" enable-background="new 0 0 180 180" xml:space="preserve">
<g id="Layer_9" display="none">
</g>
<g id="Layer_1">
</g>
<g id="Layer_2">
</g>
<g id="Layer_3">
</g>
<g id="Layer_4">
</g>
<g id="Layer_5">
</g>
<g id="Layer_6">
</g>
<g id="Layer_7">
</g>
<g id="Layer_8">
</g>
<g id="Layer_10">
</g>
<g id="Layer_11">
</g>
<g id="Layer_12">
</g>
<g id="Layer_13">
</g>
<g id="Layer_14">
</g>
<g id="Layer_15">
</g>
<g id="Layer_16">
</g>
<g id="Layer_17">
</g>
<g id="Layer_18">
</g>
<g id="Layer_19">
</g>
<g id="Layer_20">
</g>
<g id="Layer_22">
	<g>
		<path fill-rule="evenodd" clip-rule="evenodd" fill="#ededed" d="M14.363,142.641c19.816,10.785,40.926,14.349,63.262,10.869
			c44.258-6.889,73.93-44.524,77.303-87.314c0.464-5.889,2.074-10.322,6.443-14.142c2.938-2.566,5.7-5.36,8.023-8.52
			c0.387-0.524,1.117-1.156,0.41-1.788c-0.324-0.288-1.152-0.229-1.674-0.073c-2.282,0.675-4.513,1.521-6.811,2.145
			c-1.511,0.413-3.553,1.874-4.537,0.385c-1.04-1.579,1.217-2.744,2.231-3.939c3.026-3.563,5.981-7.148,7.787-12.345
			c-3.822,1.572-7.018,2.748-10.086,4.182c-6.33,2.953-11.658,2.863-17.863-1.663c-13.512-9.858-34.588-5.524-44.615,9.517
			c-4.331,6.495-6.218,13.601-5.338,21.438c0.129,1.139,2.168,4.088-1.855,3.72c-16.76-1.528-32.018-6.975-45.781-16.56
			c-7.246-5.047-13.41-11.263-19.709-17.427c-6.467,11.454-5.208,26.92,2.86,36.69c1.204,1.459,2.519,2.826,3.712,4.292
			c0.344,0.421,0.725,1.108,0.6,1.534c-0.26,0.873-1.195,0.632-1.818,0.469c-2.184-0.574-4.344-1.236-6.501-1.896
			c-3.75-1.144-4.165-0.827-3.473,3.016c2.141,11.897,8.559,20.714,19.595,26.165c1.415,0.698,2.839,1.377,4.26,2.065
			c-2.454,0.791-4.672,0.773-6.888,0.791c-5.247,0.036-5.741,0.821-3.097,5.42c4.247,7.394,10.877,12.017,18.705,15.148
			c2.594,1.044,5.253,1.93,8.002,2.932c-13.435,10.136-28.961,12.354-45.023,12.591C12.809,141.992,13.658,142.254,14.363,142.641z"
			/>
	</g>
</g>
<g id="Layer_21">
</g>
<g id="Layer_30">
</g>
<g id="Layer_23">
</g>
<g id="Layer_24">
</g>
<g id="Layer_25">
</g>
<g id="Layer_26">
</g>
<g id="Layer_27">
</g>
<g id="Layer_28">
</g>
<g id="Layer_29">
</g>
</svg>
