<?xml version="1.0" encoding="utf-8"?>
<!-- Generator: Adobe Illustrator 16.0.4, SVG Export Plug-In . SVG Version: 6.00 Build 0)  -->
<!DOCTYPE svg PUBLIC "-//W3C//DTD SVG 1.1//EN" "http://www.w3.org/Graphics/SVG/1.1/DTD/svg11.dtd">
<svg version="1.1" xmlns="http://www.w3.org/2000/svg" xmlns:xlink="http://www.w3.org/1999/xlink" x="0px" y="0px" width="180px"
	 height="180px" viewBox="0 0 180 180" enable-background="new 0 0 180 180" xml:space="preserve">
<g id="Layer_9" display="none">
</g>
<g id="Layer_1">
</g>
<g id="Layer_2">
</g>
<g id="Layer_3">
</g>
<g id="Layer_4">
</g>
<g id="Layer_5">
</g>
<g id="Layer_6">
</g>
<g id="Layer_7">
</g>
<g id="Layer_8">
</g>
<g id="Layer_10">
</g>
<g id="Layer_11">
</g>
<g id="Layer_12">
</g>
<g id="Layer_13">
</g>
<g id="Layer_14">
</g>
<g id="Layer_15">
	<g id="yBXfAS.tif_1_">
		<g>
			<path fill-rule="evenodd" clip-rule="evenodd" fill="#CCCCCC" d="M79.6,65.178c2.616,0.373,3.251,1.1,3.194,3.486
				c-0.015,0.592-0.075,1.201-0.245,1.764c-0.73,2.43-1.488,4.853-2.278,7.266c-0.447,1.364-1.201,2.466-2.893,2.326
				c-0.891-0.072-1.068,0.441-1.277,1.118c-0.908,2.936-1.778,5.889-2.828,8.776c-0.98,2.691-0.978,5.297,0.438,7.769
				C74.198,98.528,75.1,99.31,76,99.729c4.837,2.255,9.755,4.341,14.598,6.585c1.544,0.715,2.968,1.694,4.402,2.621
				c2.18,1.41,3.405,3.49,4.049,5.928c1.128,4.271,1.542,8.613,1.298,13.019c-0.261,4.692-2.547,7.521-7.213,8.497
				c-3.154,0.663-6.358,1.203-9.569,1.474c-13.63,1.146-27.291,1.133-40.941,0.55c-5.737-0.245-11.475-0.952-17.16-1.785
				c-5.225-0.766-7.716-3.278-8.46-7.817c-0.217-1.324-0.425-2.695-0.298-4.014c0.307-3.159,0.619-6.339,1.292-9.435
				c0.994-4.576,4.613-7.007,8.542-8.899c4.397-2.116,8.919-3.988,13.396-5.944c4.303-1.881,5.924-5.575,4.421-9.986
				c-1.089-3.193-2.061-6.428-3.171-9.613c-0.137-0.392-0.807-0.826-1.25-0.85c-1.37-0.07-2.207-0.77-2.592-1.937
				c-0.936-2.835-1.881-5.673-2.627-8.558c-0.665-2.568,0.272-3.86,3.157-4.462c-0.141-1.909-0.163-3.887-0.453-5.823
				c-1.719-11.466,5.51-21.778,17.03-24.205c11.958-2.517,24.036,5.782,25.518,17.705c0.326,2.627-0.056,5.34-0.14,8.014
				C79.784,62.226,79.681,63.657,79.6,65.178z"/>
		</g>
	</g>
	<g id="K81L6r.tif_2_">
		<g>
			<path fill-rule="evenodd" clip-rule="evenodd" fill="#CCCCCC" d="M154.689,94.417c-7.89,4.194-16.25,6.457-25.2,7.001
				c0.183,1.842,0.241,3.533,0.545,5.182c0.265,1.441,1.287,2.392,2.737,2.79c4.866,1.328,9.736,2.645,14.608,3.949
				c3.86,1.034,7.74,2.006,11.584,3.093c1.225,0.347,2.406,0.906,3.54,1.493c3.937,2.032,5.99,5.274,6.066,9.651
				c0.06,3.381,0.076,6.767,0.001,10.148c-0.097,4.313-8.684,7.56-13.444,7.629c-5.106,0.074-5.108-0.047-10.215-0.047
				c-22.673,0-37.516,0.034-60.189-0.027c-1.571-0.005-11.083-0.37-12.513-0.997c-2.567-1.129-4.145-3.262-4.251-6.062
				c-0.144-3.799-0.13-7.612,0.028-11.411c0.173-4.132,2.421-7.197,6.128-8.849c3.314-1.478,6.869-2.479,10.383-3.464
				c6.368-1.784,12.782-3.405,19.182-5.079c2.127-0.557,3.203-1.896,3.295-4.046c0.054-1.255,0.139-2.507,0.216-3.87
				c-9.626-0.068-18.774-1.618-27.028-6.858c0.185-0.21,0.278-0.378,0.422-0.471c5.622-3.633,8.504-8.935,9.245-15.343
				c0.673-5.822,0.98-11.682,1.49-17.521c0.493-5.622,1.778-11.014,4.889-15.87c3.811-5.953,9.428-9.077,16.372-9.842
				c3.093-0.342,6.283-0.31,9.382,0.013c2.679,0.279,4.798,1.776,5.506,4.448c1.735,0.128,3.42,0.083,5.028,0.405
				c4.227,0.848,7.077,3.471,9.007,7.179c2.292,4.398,2.666,9.148,2.75,13.966c0.07,4.035,0.006,8.085,0.332,12.103
				c0.456,5.632,2.415,10.782,5.956,15.298C151.912,90.752,153.243,92.526,154.689,94.417z"/>
		</g>
	</g>
</g>
<g id="Layer_16">
</g>
<g id="Layer_17">
</g>
<g id="Layer_18">
</g>
<g id="Layer_19">
</g>
<g id="Layer_20">
</g>
<g id="Layer_22">
</g>
<g id="Layer_21">
</g>
<g id="Layer_30">
</g>
<g id="Layer_23">
</g>
<g id="Layer_24">
</g>
<g id="Layer_25">
</g>
<g id="Layer_26">
</g>
<g id="Layer_27">
</g>
<g id="Layer_28">
</g>
<g id="Layer_29">
</g>
</svg>
