<?xml version="1.0" encoding="utf-8"?>
<!-- Generator: Adobe Illustrator 16.0.4, SVG Export Plug-In . SVG Version: 6.00 Build 0)  -->
<!DOCTYPE svg PUBLIC "-//W3C//DTD SVG 1.1//EN" "http://www.w3.org/Graphics/SVG/1.1/DTD/svg11.dtd">
<svg version="1.1" xmlns="http://www.w3.org/2000/svg" xmlns:xlink="http://www.w3.org/1999/xlink" x="0px" y="0px" width="180px"
	 height="180px" viewBox="0 0 180 180" enable-background="new 0 0 180 180" xml:space="preserve">
<g id="Layer_9" display="none">
</g>
<g id="Layer_1">
</g>
<g id="Layer_2">
</g>
<g id="Layer_3">
</g>
<g id="Layer_4">
</g>
<g id="Layer_5">
</g>
<g id="Layer_6">
	<g id="jJbl2f.tif_1_">
		<g>
			<path fill-rule="evenodd" clip-rule="evenodd" fill="#CCCCCC" d="M160.08,158.145c-1.18,3.004-3.462,4.098-6.592,4.095
				c-42.332-0.029-84.663-0.023-126.994-0.008c-2.276,0-4.411-0.382-5.681-2.422c-0.588-0.944-1.007-2.277-0.864-3.348
				c1.008-7.544,3.066-14.808,6.426-21.659c3.301-6.733,7.517-12.829,12.743-18.24c5.062-5.242,10.755-9.613,17.117-13.155
				c0.907-0.505,1.359-0.222,2.017,0.311c2.285,1.849,4.496,3.826,6.953,5.418c6.862,4.448,14.428,6.787,22.619,7.19
				c6.938,0.343,13.595-0.855,19.97-3.494c5.098-2.11,9.726-5.043,13.686-8.923c0.87-0.852,1.542-0.945,2.583-0.34
				c5.105,2.972,9.863,6.387,14.184,10.437c4.516,4.233,8.436,8.947,11.681,14.192c4.711,7.615,7.95,15.825,9.497,24.674
				c0.178,1.018,0.435,2.022,0.656,3.033C160.08,156.651,160.08,157.398,160.08,158.145z"/>
			<path fill-rule="evenodd" clip-rule="evenodd" fill="#CCCCCC" d="M90.001,110.221c-22.049,0.02-40.12-17.947-40.131-40.02
				c-0.011-22.207,17.785-40.163,40.073-40.178c22.248-0.015,40.08,17.859,40.134,40.118
				C130.131,92.162,112.054,110.203,90.001,110.221z"/>
		</g>
	</g>
	<rect x="147.619" y="70.122" fill-rule="evenodd" clip-rule="evenodd" fill="#CCCCCC" width="6.5" height="33.021"/>
	<rect x="134.358" y="83.383" fill-rule="evenodd" clip-rule="evenodd" fill="#CCCCCC" width="33.021" height="6.5"/>
</g>
<g id="Layer_7">
</g>
<g id="Layer_8">
</g>
<g id="Layer_10">
</g>
<g id="Layer_11">
</g>
<g id="Layer_12">
</g>
<g id="Layer_13">
</g>
<g id="Layer_14">
</g>
<g id="Layer_15">
</g>
<g id="Layer_16">
</g>
<g id="Layer_17">
</g>
<g id="Layer_18">
</g>
<g id="Layer_19">
</g>
<g id="Layer_20">
</g>
<g id="Layer_22">
</g>
<g id="Layer_21">
</g>
<g id="Layer_30">
</g>
<g id="Layer_23">
</g>
<g id="Layer_24">
</g>
<g id="Layer_25">
</g>
<g id="Layer_26">
</g>
<g id="Layer_27">
</g>
<g id="Layer_28">
</g>
<g id="Layer_29">
</g>
</svg>
